#!OML:ASF H:\Punching\Project 1\Capture day 1\Session 1\female.ASF
:FULLY-SPECIFIED
:DEGREES
3224
root 5.32819 15.8667 1.34426 -171.759 -50.6458 -176.916
lowerback -5.39729 -0.236951 4.45774
upperback -6.48414 -0.763257 2.05124
thorax -3.7086 -0.683195 -0.378028
lowerneck -12.0998 8.33347 13.8242
upperneck 37.8707 9.65956 -8.79762
head 17.0701 4.03625 -4.8763
rclavicle 9.46215e-014 1.51076e-014
rhumerus -42.1645 -12.148 -66.6172
rradius 23.6449
rwrist 16.879
rhand -12.5675 -7.24198
rfingers 7.12502
rthumb 13.5101 -36.7837
lclavicle 9.46215e-014 1.51076e-014
lhumerus -45.9194 3.8366 78.216
lradius 35.7211
lwrist -17.7549
lhand -5.78486 10.8706
lfingers 7.12502
lthumb 20.0392 39.8572
rfemur -18.8314 2.14068 27.4467
rtibia 20.2538
rfoot -12.2943 -7.29651
rtoes 3.14479
lfemur -26.4583 -0.0703455 -18.1798
ltibia 62.6584
lfoot -7.73731 4.86428
ltoes -5.36172
3225
root 5.29104 15.8625 1.28369 -171.764 -50.7489 -176.858
lowerback -5.39492 -0.180236 4.4706
upperback -6.44482 -0.685667 2.05267
thorax -3.66573 -0.642203 -0.382991
lowerneck -12.1382 8.33604 13.9117
upperneck 37.6736 9.69693 -8.88855
head 16.9918 4.06403 -4.91012
rclavicle -3.00165e-014 7.95139e-015
rhumerus -41.6558 -12.2637 -66.6418
rradius 23.4731
rwrist 17.348
rhand -12.8903 -7.19278
rfingers 7.12502
rthumb 13.1989 -36.755
lclavicle -3.00165e-014 7.95139e-015
lhumerus -45.8202 3.71947 78.4117
lradius 36.3201
lwrist -17.115
lhand -5.98588 10.9131
lfingers 7.12502
lthumb 19.8459 39.9198
rfemur -18.6455 2.06576 27.6129
rtibia 20.3731
rfoot -12.4675 -7.40166
rtoes 3.64107
lfemur -27.604 0.100201 -18.3479
ltibia 62.7404
lfoot -8.58454 5.52861
ltoes -5.59922
3226
root 5.25314 15.8556 1.22468 -171.789 -50.8688 -176.77
lowerback -5.39401 -0.126959 4.52017
upperback -6.41092 -0.614244 2.05345
thorax -3.62862 -0.60628 -0.409018
lowerneck -12.1713 8.342 14.0001
upperneck 37.4972 9.73423 -8.97277
head 16.9238 4.09169 -4.94263
rclavicle -1.72943e-014 -1.90833e-014
rhumerus -41.1355 -12.401 -66.6687
rradius 23.2822
rwrist 17.8335
rhand -13.1725 -7.14336
rfingers 7.12502
rthumb 12.9269 -36.723
lclavicle -1.72943e-014 -1.90833e-014
lhumerus -45.7404 3.55868 78.6474
lradius 36.9516
lwrist -16.4213
lhand -6.18178 11.0363
lfingers 7.12502
lthumb 19.6576 40.0625
rfemur -18.4817 1.97748 27.7908
rtibia 20.5319
rfoot -12.6949 -7.49411
rtoes 4.08068
lfemur -28.7253 0.225597 -18.5177
ltibia 62.6841
lfoot -9.44102 6.29137
ltoes -5.77575
3227
root 5.21461 15.8449 1.16742 -171.818 -51.003 -176.674
lowerback -5.38629 -0.0750421 4.59516
upperback -6.38626 -0.545279 2.04806
thorax -3.60552 -0.573365 -0.455328
lowerneck -12.1999 8.34867 14.0812
upperneck 37.3432 9.76683 -9.04241
head 16.8648 4.11716 -4.96973
rclavicle -7.36994e-014 3.18055e-015
rhumerus -40.6214 -12.5527 -66.7007
rradius 23.0897
rwrist 18.3177
rhand -13.4231 -7.0933
rfingers 7.12502
rthumb 12.6853 -36.688
lclavicle -7.36994e-014 3.18055e-015
lhumerus -45.681 3.35055 78.9193
lradius 37.6034
lwrist -15.7015
lhand -6.37672 11.222
lfingers 7.12502
lthumb 19.4702 40.2671
rfemur -18.343 1.86725 27.967
rtibia 20.734
rfoot -12.9733 -7.57088
rtoes 4.4337
lfemur -29.8211 0.302874 -18.702
ltibia 62.4915
lfoot -10.2784 7.13776
ltoes -5.87868
3228
root 5.17569 15.8345 1.1116 -171.856 -51.1416 -176.558
lowerback -5.36711 -0.0170233 4.70276
upperback -6.37375 -0.468802 2.03688
thorax -3.60167 -0.539018 -0.525252
lowerneck -12.2233 8.35244 14.1554
upperneck 37.2098 9.79089 -9.10123
head 16.8131 4.13853 -4.99393
rclavicle -1.45809e-013 -1.35174e-014
rhumerus -40.119 -12.6897 -66.7543
rradius 22.896
rwrist 18.7949
rhand -13.6885 -7.03078
rfingers 7.12502
rthumb 12.4295 -36.6412
lclavicle -1.45809e-013 -1.35174e-014
lhumerus -45.6383 3.10378 79.2125
lradius 38.2592
lwrist -15.0099
lhand -6.54893 11.4356
lfingers 7.12502
lthumb 19.3046 40.4974
rfemur -18.2334 1.7585 28.147
rtibia 20.9803
rfoot -13.2974 -7.63966
rtoes 4.72704
lfemur -30.8834 0.344828 -18.8866
ltibia 62.1501
lfoot -11.0821 8.04334
ltoes -5.88379
3229
root 5.13629 15.823 1.05697 -171.902 -51.2857 -176.427
lowerback -5.33902 0.0487878 4.83761
upperback -6.36929 -0.382337 2.01999
thorax -3.61094 -0.501504 -0.615831
lowerneck -12.2532 8.35078 14.2115
upperneck 37.0972 9.80291 -9.1429
head 16.7695 4.15362 -5.01072
rclavicle -6.79347e-014 -1.59028e-015
rhumerus -39.6312 -12.8097 -66.8279
rradius 22.7127
rwrist 19.2481
rhand -13.9574 -6.95413
rfingers 7.12502
rthumb 12.1702 -36.5801
lclavicle -6.79347e-014 -1.59028e-015
lhumerus -45.6019 2.84682 79.5036
lradius 38.8939
lwrist -14.4233
lhand -6.66118 11.5781
lfingers 7.12502
lthumb 19.1967 40.6507
rfemur -18.1404 1.64861 28.331
rtibia 21.252
rfoot -13.6468 -7.70877
rtoes 4.95165
lfemur -31.9079 0.351068 -19.07
ltibia 61.665
lfoot -11.8487 8.97749
ltoes -5.77355
3230
root 5.09663 15.8105 1.00317 -171.958 -51.4309 -176.276
lowerback -5.30534 0.120666 4.99409
upperback -6.37261 -0.288237 2.00024
thorax -3.63107 -0.461742 -0.721138
lowerneck -12.2894 8.34502 14.2526
upperneck 37.001 9.80609 -9.17182
head 16.7326 4.16372 -5.02174
rclavicle -9.50688e-014 9.54166e-015
rhumerus -39.1552 -12.8846 -66.9375
rradius 22.5493
rwrist 19.6511
rhand -14.244 -6.85941
rfingers 7.12502
rthumb 11.8939 -36.5016
lclavicle -9.50688e-014 9.54166e-015
lhumerus -45.5704 2.60146 79.7755
lradius 39.4955
lwrist -13.9768
lhand -6.70637 11.6263
lfingers 7.12502
lthumb 19.1532 40.7032
rfemur -18.0496 1.54836 28.5234
rtibia 21.5113
rfoot -13.9911 -7.78788
rtoes 5.10068
lfemur -32.8935 0.328549 -19.2433
ltibia 61.032
lfoot -12.575 9.90224
ltoes -5.54975
3231
root 5.05637 15.7976 0.949572 -172.033 -51.5819 -176.101
lowerback -5.27011 0.193554 5.16863
upperback -6.37881 -0.193252 1.98312
thorax -3.65474 -0.422564 -0.833757
lowerneck -12.3317 8.33769 14.2793
upperneck 36.9169 9.80656 -9.19349
head 16.7014 4.17095 -5.02823
rclavicle -1.48592e-014 1.43125e-014
rhumerus -38.6894 -12.8974 -67.0889
rradius 22.4251
rwrist 19.9688
rhand -14.501 -6.77003
rfingers 7.12502
rthumb 11.646 -36.4264
lclavicle -1.48592e-014 1.43125e-014
lhumerus -45.5448 2.3758 80.0272
lradius 40.0642
lwrist -13.6749
lhand -6.68117 11.5681
lfingers 7.12502
lthumb 19.1774 40.6426
rfemur -17.952 1.45017 28.7311
rtibia 21.7558
rfoot -14.3301 -7.87546
rtoes 5.2091
lfemur -33.828 0.280422 -19.3982
ltibia 60.2533
lfoot -13.2713 10.7872
ltoes -5.26886
3232
root 5.01536 15.7847 0.895724 -172.115 -51.7359 -175.917
lowerback -5.23787 0.266912 5.34075
upperback -6.38499 -0.0977029 1.96806
thorax -3.67614 -0.383008 -0.942977
lowerneck -12.3781 8.324 14.2985
upperneck 36.8389 9.7997 -9.21954
head 16.673 4.17297 -5.03736
rclavicle 3.47873e-016 -3.18055e-015
rhumerus -38.2313 -12.8441 -67.2771
rradius 22.35
rwrist 20.1714
rhand -14.6966 -6.68269
rfingers 7.12502
rthumb 11.4574 -36.3496
lclavicle 3.47873e-016 -3.18055e-015
lhumerus -45.5233 2.1627 80.2699
lradius 40.6019
lwrist -13.4964
lhand -6.60774 11.4366
lfingers 7.12502
lthumb 19.248 40.5041
rfemur -17.8338 1.3673 28.9421
rtibia 21.9669
rfoot -14.6493 -7.98506
rtoes 5.30659
lfemur -34.6992 0.212878 -19.5432
ltibia 59.3251
lfoot -13.9299 11.6036
ltoes -4.95659
